<svg width="388" height="261" viewBox="0 0 388 261" fill="none" xmlns="http://www.w3.org/2000/svg">
<rect x="89" y="30" width="62" height="220" rx="9" stroke="#E85E58" stroke-width="2" stroke-dasharray="7 2"/>
<rect x="305" y="30" width="69" height="220" rx="9" stroke="#E85E58" stroke-width="2" stroke-dasharray="7 2"/>
<path d="M103.815 47.7305H106.331L111.998 54.6826V49.3369C111.998 48.7673 111.934 48.4118 111.807 48.2705C111.638 48.0791 111.371 47.9834 111.007 47.9834H110.686V47.7305H113.912V47.9834H113.584C113.192 47.9834 112.914 48.1019 112.75 48.3389C112.65 48.4847 112.6 48.8174 112.6 49.3369V57.1504H112.354L106.242 49.6855V55.3936C106.242 55.9632 106.304 56.3187 106.427 56.46C106.6 56.6514 106.867 56.7471 107.227 56.7471H107.555V57H104.328V56.7471H104.649C105.046 56.7471 105.326 56.6286 105.49 56.3916C105.59 56.2458 105.641 55.9131 105.641 55.3936V48.9473C105.372 48.6328 105.167 48.4255 105.025 48.3252C104.889 48.2249 104.686 48.1315 104.417 48.0449C104.285 48.0039 104.084 47.9834 103.815 47.9834V47.7305ZM116.394 47.2793V51.8594C116.899 51.3034 117.3 50.9479 117.597 50.793C117.893 50.6335 118.189 50.5537 118.485 50.5537C118.841 50.5537 119.146 50.6517 119.401 50.8477C119.657 51.0436 119.846 51.3512 119.969 51.7705C120.055 52.0622 120.099 52.5954 120.099 53.3701V55.585C120.099 55.9814 120.131 56.2526 120.194 56.3984C120.24 56.5078 120.317 56.5944 120.427 56.6582C120.536 56.722 120.737 56.7539 121.028 56.7539V57H117.952V56.7539H118.096C118.387 56.7539 118.59 56.7106 118.704 56.624C118.818 56.5329 118.898 56.4007 118.943 56.2275C118.957 56.1546 118.964 55.9404 118.964 55.585V53.3701C118.964 52.6865 118.927 52.2376 118.854 52.0234C118.786 51.8092 118.674 51.6497 118.52 51.5449C118.365 51.4355 118.178 51.3809 117.959 51.3809C117.736 51.3809 117.503 51.4401 117.262 51.5586C117.02 51.6771 116.731 51.9163 116.394 52.2764V55.585C116.394 56.0133 116.416 56.2799 116.462 56.3848C116.512 56.4896 116.601 56.5785 116.729 56.6514C116.861 56.7197 117.086 56.7539 117.405 56.7539V57H114.302V56.7539C114.58 56.7539 114.799 56.7106 114.958 56.624C115.049 56.5785 115.122 56.4919 115.177 56.3643C115.231 56.2367 115.259 55.9769 115.259 55.585V49.918C115.259 49.2025 115.241 48.7627 115.204 48.5986C115.172 48.4346 115.12 48.3229 115.047 48.2637C114.979 48.2044 114.885 48.1748 114.767 48.1748C114.671 48.1748 114.516 48.2113 114.302 48.2842L114.206 48.0449L116.079 47.2793H116.394ZM125.103 56.0977C124.46 56.5944 124.057 56.8815 123.893 56.959C123.646 57.0729 123.384 57.1299 123.106 57.1299C122.674 57.1299 122.316 56.9818 122.033 56.6855C121.755 56.3893 121.616 55.9997 121.616 55.5166C121.616 55.2113 121.685 54.9469 121.821 54.7236C122.008 54.4137 122.332 54.1221 122.792 53.8486C123.257 53.5752 124.027 53.2425 125.103 52.8506V52.6045C125.103 51.9801 125.002 51.5518 124.802 51.3193C124.606 51.0869 124.319 50.9707 123.94 50.9707C123.653 50.9707 123.425 51.0482 123.257 51.2031C123.084 51.3581 122.997 51.5358 122.997 51.7363L123.011 52.1328C123.011 52.3424 122.956 52.5042 122.847 52.6182C122.742 52.7321 122.603 52.7891 122.43 52.7891C122.261 52.7891 122.122 52.7298 122.013 52.6113C121.908 52.4928 121.855 52.3311 121.855 52.126C121.855 51.734 122.056 51.374 122.457 51.0459C122.858 50.7178 123.421 50.5537 124.146 50.5537C124.701 50.5537 125.157 50.6471 125.513 50.834C125.782 50.9753 125.98 51.1963 126.107 51.4971C126.189 51.693 126.23 52.0941 126.23 52.7002V54.8262C126.23 55.4232 126.242 55.79 126.265 55.9268C126.287 56.0589 126.324 56.1478 126.374 56.1934C126.429 56.2389 126.49 56.2617 126.559 56.2617C126.632 56.2617 126.695 56.2458 126.75 56.2139C126.846 56.1546 127.03 55.9883 127.304 55.7148V56.0977C126.793 56.7812 126.306 57.123 125.841 57.123C125.618 57.123 125.44 57.0456 125.308 56.8906C125.175 56.7357 125.107 56.4714 125.103 56.0977ZM125.103 55.6533V53.2676C124.414 53.541 123.97 53.7347 123.77 53.8486C123.41 54.0492 123.152 54.2588 122.997 54.4775C122.842 54.6963 122.765 54.9355 122.765 55.1953C122.765 55.5234 122.863 55.7969 123.059 56.0156C123.255 56.2298 123.48 56.3369 123.735 56.3369C124.082 56.3369 124.537 56.109 125.103 55.6533ZM122.286 49.501H122.067C122.086 48.8766 122.215 48.4255 122.457 48.1475C122.699 47.8695 122.997 47.7305 123.353 47.7305C123.539 47.7305 123.71 47.7601 123.865 47.8193C124.07 47.8968 124.36 48.0609 124.733 48.3115C125.112 48.5576 125.392 48.6807 125.574 48.6807C125.72 48.6807 125.848 48.6191 125.957 48.4961C126.071 48.373 126.16 48.1178 126.224 47.7305H126.436C126.44 48.1543 126.383 48.4915 126.265 48.7422C126.151 48.9883 125.987 49.182 125.772 49.3232C125.563 49.46 125.351 49.5283 125.137 49.5283C124.777 49.5283 124.33 49.346 123.797 48.9814C123.51 48.7855 123.316 48.667 123.216 48.626C123.116 48.585 123.018 48.5645 122.922 48.5645C122.735 48.5645 122.587 48.6465 122.478 48.8105C122.427 48.888 122.364 49.1182 122.286 49.501ZM129.601 51.8799C130.334 50.9958 131.034 50.5537 131.699 50.5537C132.041 50.5537 132.335 50.6403 132.581 50.8135C132.827 50.9821 133.023 51.2624 133.169 51.6543C133.269 51.9277 133.319 52.347 133.319 52.9121V55.585C133.319 55.9814 133.351 56.2503 133.415 56.3916C133.465 56.5055 133.545 56.5944 133.654 56.6582C133.768 56.722 133.976 56.7539 134.276 56.7539V57H131.18V56.7539H131.31C131.601 56.7539 131.804 56.7106 131.918 56.624C132.036 56.5329 132.118 56.4007 132.164 56.2275C132.182 56.1592 132.191 55.945 132.191 55.585V53.0215C132.191 52.4518 132.116 52.0394 131.966 51.7842C131.82 51.5244 131.572 51.3945 131.221 51.3945C130.678 51.3945 130.138 51.6908 129.601 52.2832V55.585C129.601 56.0088 129.626 56.2708 129.676 56.3711C129.74 56.5033 129.826 56.6012 129.936 56.665C130.049 56.7243 130.277 56.7539 130.619 56.7539V57H127.522V56.7539H127.659C127.978 56.7539 128.192 56.6742 128.302 56.5146C128.416 56.3506 128.473 56.0407 128.473 55.585V53.2607C128.473 52.5088 128.454 52.0508 128.418 51.8867C128.386 51.7227 128.334 51.611 128.261 51.5518C128.192 51.4925 128.099 51.4629 127.98 51.4629C127.853 51.4629 127.7 51.4971 127.522 51.5654L127.42 51.3193L129.307 50.5537H129.601V51.8799Z" fill="black"/>
<path d="M325.419 47.5186V50.7246H325.166C325.084 50.1094 324.936 49.6195 324.722 49.2549C324.512 48.8903 324.211 48.6009 323.819 48.3867C323.427 48.1725 323.022 48.0654 322.603 48.0654C322.129 48.0654 321.737 48.2113 321.427 48.5029C321.117 48.79 320.962 49.1182 320.962 49.4873C320.962 49.7699 321.06 50.0273 321.256 50.2598C321.538 50.6016 322.211 51.0573 323.272 51.627C324.138 52.0918 324.729 52.4495 325.043 52.7002C325.362 52.9463 325.606 53.238 325.774 53.5752C325.948 53.9124 326.034 54.2656 326.034 54.6348C326.034 55.3366 325.761 55.9427 325.214 56.4531C324.672 56.959 323.972 57.2119 323.115 57.2119C322.846 57.2119 322.593 57.1914 322.356 57.1504C322.215 57.1276 321.921 57.0456 321.475 56.9043C321.033 56.7585 320.752 56.6855 320.634 56.6855C320.52 56.6855 320.429 56.7197 320.36 56.7881C320.297 56.8564 320.249 56.9977 320.217 57.2119H319.964V54.0332H320.217C320.335 54.6986 320.495 55.1976 320.695 55.5303C320.896 55.8584 321.201 56.1318 321.611 56.3506C322.026 56.5693 322.479 56.6787 322.972 56.6787C323.541 56.6787 323.99 56.5283 324.318 56.2275C324.651 55.9268 324.817 55.5713 324.817 55.1611C324.817 54.9333 324.754 54.7031 324.626 54.4707C324.503 54.2383 324.309 54.0218 324.045 53.8213C323.867 53.6846 323.382 53.3952 322.589 52.9531C321.796 52.5065 321.231 52.151 320.894 51.8867C320.561 51.6224 320.308 51.3307 320.135 51.0117C319.962 50.6927 319.875 50.3418 319.875 49.959C319.875 49.2936 320.13 48.7217 320.641 48.2432C321.151 47.7601 321.8 47.5186 322.589 47.5186C323.081 47.5186 323.603 47.6393 324.154 47.8809C324.41 47.9948 324.59 48.0518 324.694 48.0518C324.813 48.0518 324.909 48.0176 324.981 47.9492C325.059 47.8763 325.12 47.7327 325.166 47.5186H325.419ZM330.778 56.0977C330.136 56.5944 329.732 56.8815 329.568 56.959C329.322 57.0729 329.06 57.1299 328.782 57.1299C328.349 57.1299 327.992 56.9818 327.709 56.6855C327.431 56.3893 327.292 55.9997 327.292 55.5166C327.292 55.2113 327.36 54.9469 327.497 54.7236C327.684 54.4137 328.007 54.1221 328.468 53.8486C328.933 53.5752 329.703 53.2425 330.778 52.8506V52.6045C330.778 51.9801 330.678 51.5518 330.478 51.3193C330.282 51.0869 329.994 50.9707 329.616 50.9707C329.329 50.9707 329.101 51.0482 328.933 51.2031C328.759 51.3581 328.673 51.5358 328.673 51.7363L328.687 52.1328C328.687 52.3424 328.632 52.5042 328.522 52.6182C328.418 52.7321 328.279 52.7891 328.105 52.7891C327.937 52.7891 327.798 52.7298 327.688 52.6113C327.584 52.4928 327.531 52.3311 327.531 52.126C327.531 51.734 327.732 51.374 328.133 51.0459C328.534 50.7178 329.097 50.5537 329.821 50.5537C330.377 50.5537 330.833 50.6471 331.188 50.834C331.457 50.9753 331.656 51.1963 331.783 51.4971C331.865 51.693 331.906 52.0941 331.906 52.7002V54.8262C331.906 55.4232 331.918 55.79 331.94 55.9268C331.963 56.0589 332 56.1478 332.05 56.1934C332.104 56.2389 332.166 56.2617 332.234 56.2617C332.307 56.2617 332.371 56.2458 332.426 56.2139C332.521 56.1546 332.706 55.9883 332.979 55.7148V56.0977C332.469 56.7812 331.981 57.123 331.517 57.123C331.293 57.123 331.116 57.0456 330.983 56.8906C330.851 56.7357 330.783 56.4714 330.778 56.0977ZM330.778 55.6533V53.2676C330.09 53.541 329.646 53.7347 329.445 53.8486C329.085 54.0492 328.828 54.2588 328.673 54.4775C328.518 54.6963 328.44 54.9355 328.44 55.1953C328.44 55.5234 328.538 55.7969 328.734 56.0156C328.93 56.2298 329.156 56.3369 329.411 56.3369C329.757 56.3369 330.213 56.109 330.778 55.6533ZM327.935 47.7168H328.146C328.297 47.9948 328.47 48.1908 328.666 48.3047C328.994 48.5007 329.407 48.5986 329.903 48.5986C330.4 48.5986 330.81 48.5029 331.134 48.3115C331.366 48.1794 331.528 47.9811 331.619 47.7168H331.845C331.804 48.2819 331.594 48.7422 331.216 49.0977C330.842 49.4531 330.4 49.6309 329.89 49.6309C329.384 49.6309 328.944 49.4554 328.57 49.1045C328.197 48.749 327.985 48.2865 327.935 47.7168ZM329.418 46.8076H329.179L329.903 44.5244H331.428L329.418 46.8076ZM338.77 54.6211C338.601 55.446 338.271 56.0817 337.778 56.5283C337.286 56.9704 336.742 57.1914 336.145 57.1914C335.434 57.1914 334.814 56.8929 334.285 56.2959C333.757 55.6989 333.492 54.8923 333.492 53.876C333.492 52.8916 333.784 52.0918 334.367 51.4766C334.955 50.8613 335.659 50.5537 336.479 50.5537C337.095 50.5537 337.601 50.7178 337.997 51.0459C338.394 51.3695 338.592 51.7067 338.592 52.0576C338.592 52.2308 338.535 52.3721 338.421 52.4814C338.312 52.5863 338.157 52.6387 337.956 52.6387C337.687 52.6387 337.484 52.5521 337.348 52.3789C337.27 52.2832 337.218 52.1009 337.19 51.832C337.168 51.5632 337.076 51.3581 336.917 51.2168C336.757 51.0801 336.536 51.0117 336.254 51.0117C335.798 51.0117 335.431 51.1803 335.153 51.5176C334.784 51.9642 334.6 52.5544 334.6 53.2881C334.6 54.0355 334.782 54.6963 335.146 55.2705C335.516 55.8402 336.012 56.125 336.637 56.125C337.083 56.125 337.484 55.9723 337.84 55.667C338.09 55.4574 338.334 55.0768 338.571 54.5254L338.77 54.6211Z" fill="black"/>
<path d="M112.101 118.73L112.203 120.904H111.943C111.893 120.521 111.825 120.248 111.738 120.084C111.597 119.82 111.408 119.626 111.171 119.503C110.938 119.375 110.631 119.312 110.248 119.312H108.942V126.394C108.942 126.963 109.004 127.319 109.127 127.46C109.3 127.651 109.567 127.747 109.927 127.747H110.248V128H106.317V127.747H106.646C107.037 127.747 107.315 127.629 107.479 127.392C107.58 127.246 107.63 126.913 107.63 126.394V119.312H106.516C106.083 119.312 105.775 119.343 105.593 119.407C105.356 119.494 105.153 119.66 104.984 119.906C104.816 120.152 104.715 120.485 104.684 120.904H104.424L104.533 118.73H112.101ZM112.641 121.738H115.56V121.991H115.416C115.211 121.991 115.056 122.037 114.951 122.128C114.851 122.215 114.801 122.324 114.801 122.456C114.801 122.634 114.876 122.88 115.026 123.194L116.551 126.353L117.952 122.894C118.03 122.707 118.068 122.522 118.068 122.34C118.068 122.258 118.052 122.196 118.021 122.155C117.984 122.105 117.927 122.066 117.85 122.039C117.772 122.007 117.635 121.991 117.439 121.991V121.738H119.477V121.991C119.308 122.009 119.178 122.046 119.087 122.101C118.996 122.155 118.896 122.258 118.786 122.408C118.745 122.472 118.668 122.647 118.554 122.935L116.004 129.183C115.758 129.789 115.434 130.247 115.033 130.557C114.637 130.867 114.254 131.021 113.885 131.021C113.616 131.021 113.395 130.944 113.222 130.789C113.049 130.634 112.962 130.456 112.962 130.256C112.962 130.064 113.023 129.91 113.146 129.791C113.274 129.677 113.447 129.62 113.666 129.62C113.816 129.62 114.021 129.67 114.281 129.771C114.464 129.839 114.577 129.873 114.623 129.873C114.76 129.873 114.908 129.802 115.067 129.661C115.231 129.52 115.396 129.246 115.56 128.841L116.004 127.754L113.755 123.03C113.687 122.889 113.577 122.714 113.427 122.504C113.313 122.344 113.219 122.237 113.146 122.183C113.042 122.11 112.873 122.046 112.641 121.991V121.738ZM116.865 120.016C116.633 120.239 116.492 120.394 116.441 120.48C116.391 120.567 116.362 120.692 116.353 120.856H116.12C116.138 120.547 116.252 120.225 116.462 119.893C116.608 119.656 116.681 119.464 116.681 119.318C116.681 118.981 116.514 118.812 116.182 118.812C116.027 118.812 115.91 118.849 115.833 118.922C115.801 118.954 115.785 118.986 115.785 119.018C115.785 119.049 115.81 119.106 115.86 119.188C115.91 119.266 115.936 119.327 115.936 119.373C115.936 119.533 115.849 119.612 115.676 119.612C115.448 119.612 115.334 119.482 115.334 119.223C115.334 119.036 115.423 118.881 115.601 118.758C115.783 118.63 116.011 118.566 116.284 118.566C116.64 118.566 116.902 118.655 117.07 118.833C117.202 118.97 117.269 119.12 117.269 119.284C117.269 119.512 117.134 119.756 116.865 120.016Z" fill="black"/>
<path d="M321.878 123.03H326.185V120.378C326.185 119.904 326.155 119.592 326.096 119.441C326.05 119.327 325.954 119.229 325.809 119.147C325.613 119.038 325.405 118.983 325.187 118.983H324.858V118.73H328.823V118.983H328.495C328.276 118.983 328.069 119.036 327.873 119.141C327.727 119.214 327.627 119.325 327.572 119.476C327.522 119.621 327.497 119.922 327.497 120.378V126.359C327.497 126.829 327.527 127.139 327.586 127.289C327.632 127.403 327.725 127.501 327.866 127.583C328.067 127.692 328.276 127.747 328.495 127.747H328.823V128H324.858V127.747H325.187C325.565 127.747 325.84 127.635 326.014 127.412C326.128 127.266 326.185 126.915 326.185 126.359V123.536H321.878V126.359C321.878 126.829 321.908 127.139 321.967 127.289C322.012 127.403 322.108 127.501 322.254 127.583C322.45 127.692 322.657 127.747 322.876 127.747H323.211V128H319.239V127.747H319.567C319.95 127.747 320.228 127.635 320.401 127.412C320.511 127.266 320.565 126.915 320.565 126.359V120.378C320.565 119.904 320.536 119.592 320.477 119.441C320.431 119.327 320.338 119.229 320.196 119.147C319.996 119.038 319.786 118.983 319.567 118.983H319.239V118.73H323.211V118.983H322.876C322.657 118.983 322.45 119.036 322.254 119.141C322.113 119.214 322.015 119.325 321.96 119.476C321.905 119.621 321.878 119.922 321.878 120.378V123.03ZM335.666 122.798C335.803 122.734 335.846 122.661 335.796 122.579C335.796 122.575 335.743 122.538 335.639 122.47C335.538 122.401 335.468 122.328 335.427 122.251C335.336 122.096 335.311 121.946 335.352 121.8C335.388 121.654 335.486 121.538 335.646 121.451C335.805 121.36 335.974 121.34 336.151 121.39C336.352 121.453 336.498 121.586 336.589 121.786C336.685 121.987 336.694 122.205 336.616 122.442C336.525 122.711 336.334 122.905 336.042 123.023C335.796 123.124 335.463 123.176 335.044 123.181V125.532C335.044 126.202 335.06 126.646 335.092 126.865C335.119 127.016 335.176 127.127 335.263 127.2C335.336 127.264 335.422 127.296 335.522 127.296C335.664 127.296 335.823 127.257 336.001 127.18L336.097 127.419L334.224 128.191H333.916V126.865C333.406 127.417 332.995 127.784 332.686 127.966C332.426 128.116 332.127 128.191 331.79 128.191C331.052 128.191 330.569 127.829 330.341 127.104C330.241 126.785 330.19 126.334 330.19 125.751V122.955C330.19 122.495 330.065 122.201 329.814 122.073C329.687 122.014 329.459 121.987 329.131 121.991V121.738H331.325V125.929C331.325 126.877 331.672 127.351 332.364 127.351C332.56 127.351 332.781 127.289 333.027 127.166C333.278 127.043 333.574 126.808 333.916 126.462V122.914C333.916 122.554 333.85 122.312 333.718 122.189C333.586 122.066 333.317 122 332.911 121.991V121.738H335.044V122.914C335.185 122.905 335.393 122.866 335.666 122.798ZM339.993 121.998C339.382 121.998 338.943 122.322 338.674 122.969C338.523 123.329 338.448 123.791 338.448 124.356C338.448 125.291 338.628 126.077 338.988 126.715C339.367 127.376 339.845 127.706 340.424 127.706C341.44 127.706 341.948 126.897 341.948 125.279C341.948 124.172 341.709 123.297 341.23 122.654C340.902 122.217 340.49 121.998 339.993 121.998ZM343.145 122.798C343.281 122.734 343.325 122.661 343.274 122.579C343.188 122.534 343.065 122.424 342.905 122.251C342.814 122.096 342.789 121.946 342.83 121.8C342.867 121.654 342.965 121.538 343.124 121.451C343.284 121.36 343.452 121.34 343.63 121.39C343.83 121.453 343.976 121.586 344.067 121.786C344.163 121.987 344.172 122.205 344.095 122.442C344.004 122.711 343.812 122.905 343.521 123.023C343.37 123.083 343.142 123.131 342.837 123.167C343.092 123.646 343.22 124.174 343.22 124.753C343.22 125.332 343.085 125.899 342.816 126.455C342.534 127.038 342.165 127.471 341.709 127.754C341.235 128.046 340.709 128.191 340.13 128.191C339.187 128.191 338.437 127.815 337.881 127.063C337.411 126.43 337.177 125.719 337.177 124.931C337.177 124.347 337.32 123.773 337.607 123.208C337.899 122.643 338.275 122.226 338.735 121.957C339.196 121.688 339.686 121.554 340.205 121.554C341.153 121.554 341.914 121.914 342.488 122.634C342.561 122.725 342.627 122.818 342.687 122.914C342.778 122.905 342.93 122.866 343.145 122.798ZM346.378 122.88C347.112 121.996 347.811 121.554 348.477 121.554C348.818 121.554 349.112 121.64 349.358 121.813C349.604 121.982 349.8 122.262 349.946 122.654C350.047 122.928 350.097 123.347 350.097 123.912V126.585C350.097 126.981 350.129 127.25 350.192 127.392C350.243 127.506 350.322 127.594 350.432 127.658C350.546 127.722 350.753 127.754 351.054 127.754V128H347.957V127.754H348.087C348.379 127.754 348.581 127.711 348.695 127.624C348.814 127.533 348.896 127.401 348.941 127.228C348.96 127.159 348.969 126.945 348.969 126.585V124.021C348.969 123.452 348.894 123.039 348.743 122.784C348.597 122.524 348.349 122.395 347.998 122.395C347.456 122.395 346.916 122.691 346.378 123.283V126.585C346.378 127.009 346.403 127.271 346.453 127.371C346.517 127.503 346.604 127.601 346.713 127.665C346.827 127.724 347.055 127.754 347.396 127.754V128H344.3V127.754H344.437C344.756 127.754 344.97 127.674 345.079 127.515C345.193 127.351 345.25 127.041 345.25 126.585V124.261C345.25 123.509 345.232 123.051 345.195 122.887C345.163 122.723 345.111 122.611 345.038 122.552C344.97 122.493 344.876 122.463 344.758 122.463C344.63 122.463 344.478 122.497 344.3 122.565L344.197 122.319L346.084 121.554H346.378V122.88ZM353.228 125.717C352.845 125.53 352.551 125.27 352.346 124.938C352.141 124.6 352.038 124.229 352.038 123.823C352.038 123.203 352.271 122.67 352.735 122.224C353.205 121.777 353.804 121.554 354.533 121.554C355.13 121.554 355.647 121.7 356.085 121.991H357.411C357.607 121.991 357.721 121.998 357.753 122.012C357.785 122.021 357.808 122.039 357.821 122.066C357.849 122.107 357.862 122.18 357.862 122.285C357.862 122.404 357.851 122.486 357.828 122.531C357.814 122.554 357.789 122.572 357.753 122.586C357.721 122.6 357.607 122.606 357.411 122.606H356.598C356.853 122.935 356.98 123.354 356.98 123.864C356.98 124.448 356.757 124.947 356.311 125.361C355.864 125.776 355.265 125.983 354.513 125.983C354.203 125.983 353.886 125.938 353.562 125.847C353.362 126.02 353.225 126.173 353.152 126.305C353.084 126.432 353.05 126.542 353.05 126.633C353.05 126.71 353.086 126.785 353.159 126.858C353.237 126.931 353.385 126.984 353.604 127.016C353.731 127.034 354.05 127.05 354.561 127.063C355.499 127.086 356.108 127.118 356.386 127.159C356.81 127.218 357.147 127.376 357.397 127.631C357.653 127.886 357.78 128.201 357.78 128.574C357.78 129.089 357.539 129.572 357.056 130.023C356.345 130.689 355.417 131.021 354.273 131.021C353.394 131.021 352.651 130.823 352.045 130.427C351.703 130.199 351.532 129.962 351.532 129.716C351.532 129.606 351.557 129.497 351.607 129.388C351.685 129.219 351.844 128.984 352.086 128.684C352.118 128.643 352.35 128.396 352.783 127.945C352.546 127.804 352.378 127.679 352.277 127.569C352.182 127.455 352.134 127.328 352.134 127.187C352.134 127.027 352.198 126.84 352.325 126.626C352.457 126.412 352.758 126.109 353.228 125.717ZM354.417 121.882C354.08 121.882 353.797 122.016 353.569 122.285C353.341 122.554 353.228 122.966 353.228 123.522C353.228 124.243 353.382 124.801 353.692 125.197C353.929 125.498 354.23 125.648 354.595 125.648C354.941 125.648 355.226 125.519 355.449 125.259C355.673 124.999 355.784 124.591 355.784 124.035C355.784 123.311 355.627 122.743 355.312 122.333C355.08 122.032 354.782 121.882 354.417 121.882ZM353.159 128C352.945 128.232 352.783 128.449 352.674 128.649C352.564 128.85 352.51 129.035 352.51 129.203C352.51 129.422 352.642 129.613 352.906 129.777C353.362 130.06 354.021 130.201 354.882 130.201C355.702 130.201 356.306 130.055 356.693 129.764C357.085 129.477 357.281 129.169 357.281 128.841C357.281 128.604 357.165 128.435 356.933 128.335C356.696 128.235 356.226 128.175 355.524 128.157C354.499 128.13 353.711 128.077 353.159 128Z" fill="black"/>
<path d="M111.101 186.73L111.203 188.904H110.943C110.893 188.521 110.825 188.248 110.738 188.084C110.597 187.82 110.408 187.626 110.171 187.503C109.938 187.375 109.631 187.312 109.248 187.312H107.942V194.394C107.942 194.963 108.004 195.319 108.127 195.46C108.3 195.651 108.567 195.747 108.927 195.747H109.248V196H105.317V195.747H105.646C106.037 195.747 106.315 195.629 106.479 195.392C106.58 195.246 106.63 194.913 106.63 194.394V187.312H105.516C105.083 187.312 104.775 187.343 104.593 187.407C104.356 187.494 104.153 187.66 103.984 187.906C103.816 188.152 103.715 188.485 103.684 188.904H103.424L103.533 186.73H111.101ZM113.835 186.279V190.859C114.341 190.303 114.742 189.948 115.038 189.793C115.334 189.633 115.631 189.554 115.927 189.554C116.282 189.554 116.588 189.652 116.843 189.848C117.098 190.044 117.287 190.351 117.41 190.771C117.497 191.062 117.54 191.595 117.54 192.37V194.585C117.54 194.981 117.572 195.253 117.636 195.398C117.681 195.508 117.759 195.594 117.868 195.658C117.978 195.722 118.178 195.754 118.47 195.754V196H115.394V195.754H115.537C115.829 195.754 116.032 195.711 116.146 195.624C116.259 195.533 116.339 195.401 116.385 195.228C116.398 195.155 116.405 194.94 116.405 194.585V192.37C116.405 191.687 116.369 191.238 116.296 191.023C116.228 190.809 116.116 190.65 115.961 190.545C115.806 190.436 115.619 190.381 115.4 190.381C115.177 190.381 114.945 190.44 114.703 190.559C114.462 190.677 114.172 190.916 113.835 191.276V194.585C113.835 195.013 113.858 195.28 113.903 195.385C113.953 195.49 114.042 195.578 114.17 195.651C114.302 195.72 114.528 195.754 114.847 195.754V196H111.743V195.754C112.021 195.754 112.24 195.711 112.399 195.624C112.491 195.578 112.563 195.492 112.618 195.364C112.673 195.237 112.7 194.977 112.7 194.585V188.918C112.7 188.202 112.682 187.763 112.646 187.599C112.614 187.435 112.561 187.323 112.488 187.264C112.42 187.204 112.326 187.175 112.208 187.175C112.112 187.175 111.957 187.211 111.743 187.284L111.647 187.045L113.521 186.279H113.835ZM122.544 195.098C121.901 195.594 121.498 195.882 121.334 195.959C121.088 196.073 120.826 196.13 120.548 196.13C120.115 196.13 119.757 195.982 119.475 195.686C119.197 195.389 119.058 195 119.058 194.517C119.058 194.211 119.126 193.947 119.263 193.724C119.45 193.414 119.773 193.122 120.233 192.849C120.698 192.575 121.468 192.243 122.544 191.851V191.604C122.544 190.98 122.444 190.552 122.243 190.319C122.047 190.087 121.76 189.971 121.382 189.971C121.095 189.971 120.867 190.048 120.698 190.203C120.525 190.358 120.438 190.536 120.438 190.736L120.452 191.133C120.452 191.342 120.397 191.504 120.288 191.618C120.183 191.732 120.044 191.789 119.871 191.789C119.702 191.789 119.563 191.73 119.454 191.611C119.349 191.493 119.297 191.331 119.297 191.126C119.297 190.734 119.497 190.374 119.898 190.046C120.299 189.718 120.862 189.554 121.587 189.554C122.143 189.554 122.599 189.647 122.954 189.834C123.223 189.975 123.421 190.196 123.549 190.497C123.631 190.693 123.672 191.094 123.672 191.7V193.826C123.672 194.423 123.683 194.79 123.706 194.927C123.729 195.059 123.765 195.148 123.815 195.193C123.87 195.239 123.932 195.262 124 195.262C124.073 195.262 124.137 195.246 124.191 195.214C124.287 195.155 124.472 194.988 124.745 194.715V195.098C124.235 195.781 123.747 196.123 123.282 196.123C123.059 196.123 122.881 196.046 122.749 195.891C122.617 195.736 122.549 195.471 122.544 195.098ZM122.544 194.653V192.268C121.856 192.541 121.411 192.735 121.211 192.849C120.851 193.049 120.593 193.259 120.438 193.478C120.284 193.696 120.206 193.936 120.206 194.195C120.206 194.523 120.304 194.797 120.5 195.016C120.696 195.23 120.922 195.337 121.177 195.337C121.523 195.337 121.979 195.109 122.544 194.653ZM121.061 186.532H122.318L123.617 188.795H123.405L121.539 187.339L119.974 188.795H119.769L121.061 186.532ZM127.042 190.88C127.776 189.996 128.475 189.554 129.141 189.554C129.482 189.554 129.776 189.64 130.022 189.813C130.269 189.982 130.465 190.262 130.61 190.654C130.711 190.928 130.761 191.347 130.761 191.912V194.585C130.761 194.981 130.793 195.25 130.856 195.392C130.907 195.506 130.986 195.594 131.096 195.658C131.21 195.722 131.417 195.754 131.718 195.754V196H128.621V195.754H128.751C129.043 195.754 129.245 195.711 129.359 195.624C129.478 195.533 129.56 195.401 129.605 195.228C129.624 195.159 129.633 194.945 129.633 194.585V192.021C129.633 191.452 129.558 191.039 129.407 190.784C129.261 190.524 129.013 190.395 128.662 190.395C128.12 190.395 127.58 190.691 127.042 191.283V194.585C127.042 195.009 127.067 195.271 127.117 195.371C127.181 195.503 127.268 195.601 127.377 195.665C127.491 195.724 127.719 195.754 128.061 195.754V196H124.964V195.754H125.101C125.42 195.754 125.634 195.674 125.743 195.515C125.857 195.351 125.914 195.041 125.914 194.585V192.261C125.914 191.509 125.896 191.051 125.859 190.887C125.827 190.723 125.775 190.611 125.702 190.552C125.634 190.493 125.54 190.463 125.422 190.463C125.294 190.463 125.142 190.497 124.964 190.565L124.861 190.319L126.748 189.554H127.042V190.88Z" fill="black"/>
<path d="M323.715 190.866L325.704 193.833C326.256 194.653 326.663 195.173 326.928 195.392C327.197 195.606 327.536 195.724 327.946 195.747V196H323.968V195.747C324.232 195.743 324.428 195.715 324.556 195.665C324.651 195.624 324.729 195.562 324.788 195.48C324.852 195.394 324.884 195.307 324.884 195.221C324.884 195.116 324.863 195.011 324.822 194.906C324.79 194.829 324.665 194.628 324.446 194.305L322.874 191.926L320.933 194.414C320.728 194.678 320.604 194.856 320.563 194.947C320.522 195.034 320.502 195.125 320.502 195.221C320.502 195.367 320.563 195.487 320.687 195.583C320.81 195.679 321.044 195.733 321.391 195.747V196H318.103V195.747C318.335 195.724 318.535 195.676 318.704 195.604C318.987 195.485 319.256 195.326 319.511 195.125C319.766 194.924 320.058 194.617 320.386 194.202L322.573 191.44L320.748 188.768C320.251 188.043 319.83 187.569 319.483 187.346C319.137 187.118 318.738 186.997 318.287 186.983V186.73H322.573V186.983C322.209 186.997 321.958 187.056 321.821 187.161C321.689 187.266 321.623 187.382 321.623 187.51C321.623 187.678 321.732 187.924 321.951 188.248L323.373 190.374L325.021 188.289C325.212 188.043 325.328 187.874 325.369 187.783C325.415 187.692 325.438 187.599 325.438 187.503C325.438 187.407 325.41 187.323 325.355 187.25C325.287 187.154 325.201 187.088 325.096 187.052C324.991 187.011 324.774 186.988 324.446 186.983V186.73H327.734V186.983C327.475 186.997 327.263 187.038 327.099 187.106C326.853 187.211 326.627 187.353 326.422 187.53C326.217 187.708 325.927 188.036 325.554 188.515L323.715 190.866ZM334.044 189.738V193.532C334.044 194.257 334.06 194.701 334.092 194.865C334.128 195.025 334.183 195.136 334.256 195.2C334.333 195.264 334.422 195.296 334.522 195.296C334.664 195.296 334.823 195.257 335.001 195.18L335.097 195.419L333.224 196.191H332.916V194.865C332.378 195.449 331.968 195.815 331.686 195.966C331.403 196.116 331.104 196.191 330.79 196.191C330.439 196.191 330.134 196.091 329.874 195.891C329.619 195.686 329.441 195.424 329.341 195.104C329.241 194.785 329.19 194.334 329.19 193.751V190.955C329.19 190.659 329.159 190.454 329.095 190.34C329.031 190.226 328.935 190.139 328.808 190.08C328.685 190.016 328.459 189.987 328.131 189.991V189.738H330.325V193.929C330.325 194.512 330.425 194.895 330.626 195.077C330.831 195.259 331.077 195.351 331.364 195.351C331.56 195.351 331.781 195.289 332.027 195.166C332.278 195.043 332.574 194.808 332.916 194.462V190.914C332.916 190.559 332.85 190.319 332.718 190.196C332.59 190.069 332.321 190 331.911 189.991V189.738H334.044ZM332.896 186.498L330.879 188.856H330.646L331.364 186.498H332.896ZM340.873 193.621C340.704 194.446 340.374 195.082 339.882 195.528C339.39 195.97 338.845 196.191 338.248 196.191C337.537 196.191 336.917 195.893 336.389 195.296C335.86 194.699 335.596 193.892 335.596 192.876C335.596 191.892 335.887 191.092 336.471 190.477C337.059 189.861 337.763 189.554 338.583 189.554C339.198 189.554 339.704 189.718 340.101 190.046C340.497 190.369 340.695 190.707 340.695 191.058C340.695 191.231 340.638 191.372 340.524 191.481C340.415 191.586 340.26 191.639 340.06 191.639C339.791 191.639 339.588 191.552 339.451 191.379C339.374 191.283 339.321 191.101 339.294 190.832C339.271 190.563 339.18 190.358 339.021 190.217C338.861 190.08 338.64 190.012 338.357 190.012C337.902 190.012 337.535 190.18 337.257 190.518C336.888 190.964 336.703 191.554 336.703 192.288C336.703 193.035 336.885 193.696 337.25 194.271C337.619 194.84 338.116 195.125 338.74 195.125C339.187 195.125 339.588 194.972 339.943 194.667C340.194 194.457 340.438 194.077 340.675 193.525L340.873 193.621Z" fill="black"/>
<path d="M103.815 82.7305H106.331L111.998 89.6826V84.3369C111.998 83.7673 111.934 83.4118 111.807 83.2705C111.638 83.0791 111.371 82.9834 111.007 82.9834H110.686V82.7305H113.912V82.9834H113.584C113.192 82.9834 112.914 83.1019 112.75 83.3389C112.65 83.4847 112.6 83.8174 112.6 84.3369V92.1504H112.354L106.242 84.6855V90.3936C106.242 90.9632 106.304 91.3187 106.427 91.46C106.6 91.6514 106.867 91.7471 107.227 91.7471H107.555V92H104.328V91.7471H104.649C105.046 91.7471 105.326 91.6286 105.49 91.3916C105.59 91.2458 105.641 90.9131 105.641 90.3936V83.9473C105.372 83.6328 105.167 83.4255 105.025 83.3252C104.889 83.2249 104.686 83.1315 104.417 83.0449C104.285 83.0039 104.084 82.9834 103.815 82.9834V82.7305ZM116.394 82.2793V86.8594C116.899 86.3034 117.3 85.9479 117.597 85.793C117.893 85.6335 118.189 85.5537 118.485 85.5537C118.841 85.5537 119.146 85.6517 119.401 85.8477C119.657 86.0436 119.846 86.3512 119.969 86.7705C120.055 87.0622 120.099 87.5954 120.099 88.3701V90.585C120.099 90.9814 120.131 91.2526 120.194 91.3984C120.24 91.5078 120.317 91.5944 120.427 91.6582C120.536 91.722 120.737 91.7539 121.028 91.7539V92H117.952V91.7539H118.096C118.387 91.7539 118.59 91.7106 118.704 91.624C118.818 91.5329 118.898 91.4007 118.943 91.2275C118.957 91.1546 118.964 90.9404 118.964 90.585V88.3701C118.964 87.6865 118.927 87.2376 118.854 87.0234C118.786 86.8092 118.674 86.6497 118.52 86.5449C118.365 86.4355 118.178 86.3809 117.959 86.3809C117.736 86.3809 117.503 86.4401 117.262 86.5586C117.02 86.6771 116.731 86.9163 116.394 87.2764V90.585C116.394 91.0133 116.416 91.2799 116.462 91.3848C116.512 91.4896 116.601 91.5785 116.729 91.6514C116.861 91.7197 117.086 91.7539 117.405 91.7539V92H114.302V91.7539C114.58 91.7539 114.799 91.7106 114.958 91.624C115.049 91.5785 115.122 91.4919 115.177 91.3643C115.231 91.2367 115.259 90.9769 115.259 90.585V84.918C115.259 84.2025 115.241 83.7627 115.204 83.5986C115.172 83.4346 115.12 83.3229 115.047 83.2637C114.979 83.2044 114.885 83.1748 114.767 83.1748C114.671 83.1748 114.516 83.2113 114.302 83.2842L114.206 83.0449L116.079 82.2793H116.394ZM123.715 85.5537V90.585C123.715 90.9769 123.744 91.2389 123.804 91.3711C123.863 91.4987 123.947 91.5944 124.057 91.6582C124.171 91.722 124.376 91.7539 124.672 91.7539V92H121.63V91.7539C121.935 91.7539 122.14 91.7243 122.245 91.665C122.35 91.6058 122.432 91.5078 122.491 91.3711C122.555 91.2344 122.587 90.9723 122.587 90.585V88.1719C122.587 87.4928 122.566 87.0531 122.525 86.8525C122.493 86.7067 122.443 86.6064 122.375 86.5518C122.307 86.4925 122.213 86.4629 122.095 86.4629C121.967 86.4629 121.812 86.4971 121.63 86.5654L121.534 86.3193L123.421 85.5537H123.715ZM121.104 84.501H120.885C120.903 83.8766 121.033 83.4255 121.274 83.1475C121.516 82.8695 121.814 82.7305 122.17 82.7305C122.357 82.7305 122.528 82.7601 122.683 82.8193C122.888 82.8968 123.177 83.0609 123.551 83.3115C123.929 83.5576 124.209 83.6807 124.392 83.6807C124.537 83.6807 124.665 83.6191 124.774 83.4961C124.888 83.373 124.977 83.1178 125.041 82.7305H125.253C125.257 83.1543 125.201 83.4915 125.082 83.7422C124.968 83.9883 124.804 84.182 124.59 84.3232C124.38 84.46 124.168 84.5283 123.954 84.5283C123.594 84.5283 123.147 84.346 122.614 83.9814C122.327 83.7855 122.133 83.667 122.033 83.626C121.933 83.585 121.835 83.5645 121.739 83.5645C121.552 83.5645 121.404 83.6465 121.295 83.8105C121.245 83.888 121.181 84.1182 121.104 84.501Z" fill="black"/>
<path d="M327.101 82.7305L327.203 84.9043H326.943C326.893 84.5215 326.825 84.248 326.738 84.084C326.597 83.8197 326.408 83.626 326.171 83.5029C325.938 83.3753 325.631 83.3115 325.248 83.3115H323.942V90.3936C323.942 90.9632 324.004 91.3187 324.127 91.46C324.3 91.6514 324.567 91.7471 324.927 91.7471H325.248V92H321.317V91.7471H321.646C322.037 91.7471 322.315 91.6286 322.479 91.3916C322.58 91.2458 322.63 90.9131 322.63 90.3936V83.3115H321.516C321.083 83.3115 320.775 83.3434 320.593 83.4072C320.356 83.4938 320.153 83.6602 319.984 83.9062C319.816 84.1523 319.715 84.485 319.684 84.9043H319.424L319.533 82.7305H327.101ZM329.835 82.2793V86.8594C330.341 86.3034 330.742 85.9479 331.038 85.793C331.334 85.6335 331.631 85.5537 331.927 85.5537C332.282 85.5537 332.588 85.6517 332.843 85.8477C333.098 86.0436 333.287 86.3512 333.41 86.7705C333.497 87.0622 333.54 87.5954 333.54 88.3701V90.585C333.54 90.9814 333.572 91.2526 333.636 91.3984C333.681 91.5078 333.759 91.5944 333.868 91.6582C333.978 91.722 334.178 91.7539 334.47 91.7539V92H331.394V91.7539H331.537C331.829 91.7539 332.032 91.7106 332.146 91.624C332.259 91.5329 332.339 91.4007 332.385 91.2275C332.398 91.1546 332.405 90.9404 332.405 90.585V88.3701C332.405 87.6865 332.369 87.2376 332.296 87.0234C332.228 86.8092 332.116 86.6497 331.961 86.5449C331.806 86.4355 331.619 86.3809 331.4 86.3809C331.177 86.3809 330.945 86.4401 330.703 86.5586C330.462 86.6771 330.172 86.9163 329.835 87.2764V90.585C329.835 91.0133 329.858 91.2799 329.903 91.3848C329.953 91.4896 330.042 91.5785 330.17 91.6514C330.302 91.7197 330.528 91.7539 330.847 91.7539V92H327.743V91.7539C328.021 91.7539 328.24 91.7106 328.399 91.624C328.491 91.5785 328.563 91.4919 328.618 91.3643C328.673 91.2367 328.7 90.9769 328.7 90.585V84.918C328.7 84.2025 328.682 83.7627 328.646 83.5986C328.614 83.4346 328.561 83.3229 328.488 83.2637C328.42 83.2044 328.326 83.1748 328.208 83.1748C328.112 83.1748 327.957 83.2113 327.743 83.2842L327.647 83.0449L329.521 82.2793H329.835ZM338.544 91.0977C337.901 91.5944 337.498 91.8815 337.334 91.959C337.088 92.0729 336.826 92.1299 336.548 92.1299C336.115 92.1299 335.757 91.9818 335.475 91.6855C335.197 91.3893 335.058 90.9997 335.058 90.5166C335.058 90.2113 335.126 89.9469 335.263 89.7236C335.45 89.4137 335.773 89.1221 336.233 88.8486C336.698 88.5752 337.468 88.2425 338.544 87.8506V87.6045C338.544 86.9801 338.444 86.5518 338.243 86.3193C338.047 86.0869 337.76 85.9707 337.382 85.9707C337.095 85.9707 336.867 86.0482 336.698 86.2031C336.525 86.3581 336.438 86.5358 336.438 86.7363L336.452 87.1328C336.452 87.3424 336.397 87.5042 336.288 87.6182C336.183 87.7321 336.044 87.7891 335.871 87.7891C335.702 87.7891 335.563 87.7298 335.454 87.6113C335.349 87.4928 335.297 87.3311 335.297 87.126C335.297 86.734 335.497 86.374 335.898 86.0459C336.299 85.7178 336.862 85.5537 337.587 85.5537C338.143 85.5537 338.599 85.6471 338.954 85.834C339.223 85.9753 339.421 86.1963 339.549 86.4971C339.631 86.693 339.672 87.0941 339.672 87.7002V89.8262C339.672 90.4232 339.683 90.79 339.706 90.9268C339.729 91.0589 339.765 91.1478 339.815 91.1934C339.87 91.2389 339.932 91.2617 340 91.2617C340.073 91.2617 340.137 91.2458 340.191 91.2139C340.287 91.1546 340.472 90.9883 340.745 90.7148V91.0977C340.235 91.7812 339.747 92.123 339.282 92.123C339.059 92.123 338.881 92.0456 338.749 91.8906C338.617 91.7357 338.549 91.4714 338.544 91.0977ZM338.544 90.6533V88.2676C337.856 88.541 337.411 88.7347 337.211 88.8486C336.851 89.0492 336.593 89.2588 336.438 89.4775C336.284 89.6963 336.206 89.9355 336.206 90.1953C336.206 90.5234 336.304 90.7969 336.5 91.0156C336.696 91.2298 336.922 91.3369 337.177 91.3369C337.523 91.3369 337.979 91.109 338.544 90.6533ZM343.042 86.8799C343.776 85.9958 344.475 85.5537 345.141 85.5537C345.482 85.5537 345.776 85.6403 346.022 85.8135C346.269 85.9821 346.465 86.2624 346.61 86.6543C346.711 86.9277 346.761 87.347 346.761 87.9121V90.585C346.761 90.9814 346.793 91.2503 346.856 91.3916C346.907 91.5055 346.986 91.5944 347.096 91.6582C347.21 91.722 347.417 91.7539 347.718 91.7539V92H344.621V91.7539H344.751C345.043 91.7539 345.245 91.7106 345.359 91.624C345.478 91.5329 345.56 91.4007 345.605 91.2275C345.624 91.1592 345.633 90.945 345.633 90.585V88.0215C345.633 87.4518 345.558 87.0394 345.407 86.7842C345.261 86.5244 345.013 86.3945 344.662 86.3945C344.12 86.3945 343.58 86.6908 343.042 87.2832V90.585C343.042 91.0088 343.067 91.2708 343.117 91.3711C343.181 91.5033 343.268 91.6012 343.377 91.665C343.491 91.7243 343.719 91.7539 344.061 91.7539V92H340.964V91.7539H341.101C341.42 91.7539 341.634 91.6742 341.743 91.5146C341.857 91.3506 341.914 91.0407 341.914 90.585V88.2607C341.914 87.5088 341.896 87.0508 341.859 86.8867C341.827 86.7227 341.775 86.611 341.702 86.5518C341.634 86.4925 341.54 86.4629 341.422 86.4629C341.294 86.4629 341.142 86.4971 340.964 86.5654L340.861 86.3193L342.748 85.5537H343.042V86.8799ZM350.056 82.2793V86.8594C350.562 86.3034 350.963 85.9479 351.259 85.793C351.555 85.6335 351.851 85.5537 352.147 85.5537C352.503 85.5537 352.808 85.6517 353.063 85.8477C353.319 86.0436 353.508 86.3512 353.631 86.7705C353.717 87.0622 353.761 87.5954 353.761 88.3701V90.585C353.761 90.9814 353.793 91.2526 353.856 91.3984C353.902 91.5078 353.979 91.5944 354.089 91.6582C354.198 91.722 354.399 91.7539 354.69 91.7539V92H351.614V91.7539H351.758C352.049 91.7539 352.252 91.7106 352.366 91.624C352.48 91.5329 352.56 91.4007 352.605 91.2275C352.619 91.1546 352.626 90.9404 352.626 90.585V88.3701C352.626 87.6865 352.59 87.2376 352.517 87.0234C352.448 86.8092 352.337 86.6497 352.182 86.5449C352.027 86.4355 351.84 86.3809 351.621 86.3809C351.398 86.3809 351.165 86.4401 350.924 86.5586C350.682 86.6771 350.393 86.9163 350.056 87.2764V90.585C350.056 91.0133 350.078 91.2799 350.124 91.3848C350.174 91.4896 350.263 91.5785 350.391 91.6514C350.523 91.7197 350.748 91.7539 351.067 91.7539V92H347.964V91.7539C348.242 91.7539 348.461 91.7106 348.62 91.624C348.711 91.5785 348.784 91.4919 348.839 91.3643C348.894 91.2367 348.921 90.9769 348.921 90.585V84.918C348.921 84.2025 348.903 83.7627 348.866 83.5986C348.834 83.4346 348.782 83.3229 348.709 83.2637C348.641 83.2044 348.547 83.1748 348.429 83.1748C348.333 83.1748 348.178 83.2113 347.964 83.2842L347.868 83.0449L349.741 82.2793H350.056Z" fill="black"/>
<path d="M103.815 151.73H106.331L111.998 158.683V153.337C111.998 152.767 111.934 152.412 111.807 152.271C111.638 152.079 111.371 151.983 111.007 151.983H110.686V151.73H113.912V151.983H113.584C113.192 151.983 112.914 152.102 112.75 152.339C112.65 152.485 112.6 152.817 112.6 153.337V161.15H112.354L106.242 153.686V159.394C106.242 159.963 106.304 160.319 106.427 160.46C106.6 160.651 106.867 160.747 107.227 160.747H107.555V161H104.328V160.747H104.649C105.046 160.747 105.326 160.629 105.49 160.392C105.59 160.246 105.641 159.913 105.641 159.394V152.947C105.372 152.633 105.167 152.425 105.025 152.325C104.889 152.225 104.686 152.132 104.417 152.045C104.285 152.004 104.084 151.983 103.815 151.983V151.73ZM116.394 151.279V155.859C116.899 155.303 117.3 154.948 117.597 154.793C117.893 154.633 118.189 154.554 118.485 154.554C118.841 154.554 119.146 154.652 119.401 154.848C119.657 155.044 119.846 155.351 119.969 155.771C120.055 156.062 120.099 156.595 120.099 157.37V159.585C120.099 159.981 120.131 160.253 120.194 160.398C120.24 160.508 120.317 160.594 120.427 160.658C120.536 160.722 120.737 160.754 121.028 160.754V161H117.952V160.754H118.096C118.387 160.754 118.59 160.711 118.704 160.624C118.818 160.533 118.898 160.401 118.943 160.228C118.957 160.155 118.964 159.94 118.964 159.585V157.37C118.964 156.687 118.927 156.238 118.854 156.023C118.786 155.809 118.674 155.65 118.52 155.545C118.365 155.436 118.178 155.381 117.959 155.381C117.736 155.381 117.503 155.44 117.262 155.559C117.02 155.677 116.731 155.916 116.394 156.276V159.585C116.394 160.013 116.416 160.28 116.462 160.385C116.512 160.49 116.601 160.578 116.729 160.651C116.861 160.72 117.086 160.754 117.405 160.754V161H114.302V160.754C114.58 160.754 114.799 160.711 114.958 160.624C115.049 160.578 115.122 160.492 115.177 160.364C115.231 160.237 115.259 159.977 115.259 159.585V153.918C115.259 153.202 115.241 152.763 115.204 152.599C115.172 152.435 115.12 152.323 115.047 152.264C114.979 152.204 114.885 152.175 114.767 152.175C114.671 152.175 114.516 152.211 114.302 152.284L114.206 152.045L116.079 151.279H116.394ZM123.147 151.279C123.339 151.279 123.501 151.348 123.633 151.484C123.77 151.617 123.838 151.778 123.838 151.97C123.838 152.161 123.77 152.325 123.633 152.462C123.501 152.599 123.339 152.667 123.147 152.667C122.956 152.667 122.792 152.599 122.655 152.462C122.519 152.325 122.45 152.161 122.45 151.97C122.45 151.778 122.516 151.617 122.648 151.484C122.785 151.348 122.951 151.279 123.147 151.279ZM123.715 154.554V159.585C123.715 159.977 123.742 160.239 123.797 160.371C123.856 160.499 123.94 160.594 124.05 160.658C124.164 160.722 124.369 160.754 124.665 160.754V161H121.623V160.754C121.928 160.754 122.133 160.724 122.238 160.665C122.343 160.606 122.425 160.508 122.484 160.371C122.548 160.234 122.58 159.972 122.58 159.585V157.172C122.58 156.493 122.56 156.053 122.519 155.853C122.487 155.707 122.437 155.606 122.368 155.552C122.3 155.493 122.206 155.463 122.088 155.463C121.96 155.463 121.805 155.497 121.623 155.565L121.527 155.319L123.414 154.554H123.715ZM126.504 157.097C126.499 158.026 126.725 158.756 127.181 159.284C127.636 159.813 128.172 160.077 128.787 160.077C129.197 160.077 129.553 159.965 129.854 159.742C130.159 159.514 130.414 159.127 130.619 158.58L130.831 158.717C130.735 159.341 130.457 159.911 129.997 160.426C129.537 160.936 128.96 161.191 128.268 161.191C127.516 161.191 126.871 160.9 126.333 160.316C125.8 159.729 125.533 158.94 125.533 157.951C125.533 156.88 125.807 156.046 126.354 155.449C126.905 154.848 127.595 154.547 128.425 154.547C129.127 154.547 129.703 154.779 130.154 155.244C130.605 155.704 130.831 156.322 130.831 157.097H126.504ZM126.504 156.7H129.402C129.38 156.299 129.332 156.017 129.259 155.853C129.145 155.597 128.974 155.397 128.746 155.251C128.523 155.105 128.288 155.032 128.042 155.032C127.664 155.032 127.324 155.18 127.023 155.477C126.727 155.768 126.554 156.176 126.504 156.7ZM127.769 151.532H129.026L130.325 153.795H130.113L128.247 152.339L126.682 153.795H126.477L127.769 151.532ZM128.206 161.82C128.42 161.82 128.6 161.893 128.746 162.039C128.892 162.189 128.965 162.369 128.965 162.579C128.965 162.789 128.89 162.966 128.739 163.112C128.593 163.263 128.416 163.338 128.206 163.338C127.996 163.338 127.816 163.263 127.666 163.112C127.52 162.966 127.447 162.789 127.447 162.579C127.447 162.365 127.52 162.185 127.666 162.039C127.816 161.893 127.996 161.82 128.206 161.82ZM133.49 152.681V154.738H134.953V155.217H133.49V159.277C133.49 159.683 133.547 159.956 133.661 160.098C133.78 160.239 133.93 160.31 134.112 160.31C134.263 160.31 134.409 160.264 134.55 160.173C134.691 160.077 134.8 159.938 134.878 159.756H135.145C134.985 160.202 134.759 160.54 134.468 160.768C134.176 160.991 133.875 161.103 133.565 161.103C133.356 161.103 133.151 161.046 132.95 160.932C132.75 160.813 132.602 160.647 132.506 160.433C132.41 160.214 132.362 159.879 132.362 159.428V155.217H131.371V154.991C131.622 154.891 131.877 154.722 132.137 154.485C132.401 154.244 132.636 153.959 132.841 153.631C132.946 153.458 133.091 153.141 133.278 152.681H133.49Z" fill="black"/>
<path d="M328.939 151.73V151.983C328.611 152.043 328.363 152.147 328.194 152.298C327.953 152.521 327.739 152.863 327.552 153.323L324.318 161.212H324.065L320.593 153.221C320.415 152.811 320.29 152.56 320.217 152.469C320.103 152.327 319.962 152.218 319.793 152.141C319.629 152.059 319.406 152.006 319.123 151.983V151.73H322.91V151.983C322.482 152.024 322.204 152.097 322.076 152.202C321.949 152.307 321.885 152.441 321.885 152.605C321.885 152.833 321.99 153.189 322.199 153.672L324.558 159.106L326.745 153.74C326.959 153.212 327.066 152.845 327.066 152.64C327.066 152.507 327 152.382 326.868 152.264C326.736 152.141 326.513 152.054 326.198 152.004C326.175 151.999 326.137 151.993 326.082 151.983V151.73H328.939ZM331.147 151.279C331.339 151.279 331.501 151.348 331.633 151.484C331.77 151.617 331.838 151.778 331.838 151.97C331.838 152.161 331.77 152.325 331.633 152.462C331.501 152.599 331.339 152.667 331.147 152.667C330.956 152.667 330.792 152.599 330.655 152.462C330.519 152.325 330.45 152.161 330.45 151.97C330.45 151.778 330.516 151.617 330.648 151.484C330.785 151.348 330.951 151.279 331.147 151.279ZM331.715 154.554V159.585C331.715 159.977 331.742 160.239 331.797 160.371C331.856 160.499 331.94 160.594 332.05 160.658C332.164 160.722 332.369 160.754 332.665 160.754V161H329.623V160.754C329.928 160.754 330.133 160.724 330.238 160.665C330.343 160.606 330.425 160.508 330.484 160.371C330.548 160.234 330.58 159.972 330.58 159.585V157.172C330.58 156.493 330.56 156.053 330.519 155.853C330.487 155.707 330.437 155.606 330.368 155.552C330.3 155.493 330.206 155.463 330.088 155.463C329.96 155.463 329.805 155.497 329.623 155.565L329.527 155.319L331.414 154.554H331.715ZM331.147 161.82C331.362 161.82 331.542 161.893 331.688 162.039C331.833 162.189 331.906 162.369 331.906 162.579C331.906 162.789 331.831 162.966 331.681 163.112C331.535 163.263 331.357 163.338 331.147 163.338C330.938 163.338 330.758 163.263 330.607 163.112C330.462 162.966 330.389 162.789 330.389 162.579C330.389 162.365 330.462 162.185 330.607 162.039C330.758 161.893 330.938 161.82 331.147 161.82Z" fill="black"/>
<path d="M109.672 221.73H112.905V221.983H112.728C112.609 221.983 112.436 222.036 112.208 222.141C111.98 222.245 111.773 222.396 111.586 222.592C111.399 222.788 111.169 223.107 110.896 223.549L108.66 227.069V229.394C108.66 229.963 108.724 230.319 108.852 230.46C109.025 230.651 109.298 230.747 109.672 230.747H109.973V231H106.035V230.747H106.363C106.755 230.747 107.033 230.629 107.197 230.392C107.298 230.246 107.348 229.913 107.348 229.394V227.199L104.805 223.316C104.504 222.861 104.299 222.576 104.189 222.462C104.085 222.348 103.864 222.211 103.526 222.052C103.435 222.006 103.303 221.983 103.13 221.983V221.73H107.095V221.983H106.89C106.675 221.983 106.477 222.034 106.295 222.134C106.117 222.234 106.028 222.384 106.028 222.585C106.028 222.749 106.167 223.045 106.445 223.474L108.38 226.461L110.198 223.604C110.472 223.175 110.608 222.856 110.608 222.646C110.608 222.519 110.574 222.405 110.506 222.305C110.442 222.204 110.349 222.127 110.226 222.072C110.103 222.013 109.918 221.983 109.672 221.983V221.73ZM109.809 218.716L107.792 221.074H107.56L108.277 218.716H109.809Z" fill="black"/>
<path d="M320.871 226.659V229.359C320.871 229.943 320.935 230.305 321.062 230.446C321.236 230.647 321.498 230.747 321.849 230.747H322.204V231H318.232V230.747H318.581C318.973 230.747 319.253 230.619 319.422 230.364C319.513 230.223 319.559 229.888 319.559 229.359V223.371C319.559 222.788 319.497 222.425 319.374 222.284C319.196 222.084 318.932 221.983 318.581 221.983H318.232V221.73H321.63C322.459 221.73 323.113 221.817 323.592 221.99C324.07 222.159 324.474 222.446 324.802 222.852C325.13 223.257 325.294 223.738 325.294 224.294C325.294 225.05 325.043 225.666 324.542 226.14C324.045 226.614 323.341 226.851 322.43 226.851C322.206 226.851 321.965 226.835 321.705 226.803C321.445 226.771 321.167 226.723 320.871 226.659ZM320.871 226.27C321.113 226.315 321.327 226.349 321.514 226.372C321.701 226.395 321.86 226.406 321.992 226.406C322.466 226.406 322.874 226.224 323.216 225.859C323.562 225.49 323.735 225.014 323.735 224.431C323.735 224.03 323.653 223.658 323.489 223.316C323.325 222.97 323.093 222.713 322.792 222.544C322.491 222.371 322.149 222.284 321.767 222.284C321.534 222.284 321.236 222.327 320.871 222.414V226.27ZM328.069 221.279V225.859C328.575 225.303 328.976 224.948 329.272 224.793C329.569 224.633 329.865 224.554 330.161 224.554C330.517 224.554 330.822 224.652 331.077 224.848C331.332 225.044 331.521 225.351 331.645 225.771C331.731 226.062 331.774 226.595 331.774 227.37V229.585C331.774 229.981 331.806 230.253 331.87 230.398C331.916 230.508 331.993 230.594 332.103 230.658C332.212 230.722 332.412 230.754 332.704 230.754V231H329.628V230.754H329.771C330.063 230.754 330.266 230.711 330.38 230.624C330.494 230.533 330.574 230.401 330.619 230.228C330.633 230.155 330.64 229.94 330.64 229.585V227.37C330.64 226.687 330.603 226.238 330.53 226.023C330.462 225.809 330.35 225.65 330.195 225.545C330.04 225.436 329.854 225.381 329.635 225.381C329.411 225.381 329.179 225.44 328.938 225.559C328.696 225.677 328.407 225.916 328.069 226.276V229.585C328.069 230.013 328.092 230.28 328.138 230.385C328.188 230.49 328.277 230.578 328.404 230.651C328.536 230.72 328.762 230.754 329.081 230.754V231H325.978V230.754C326.256 230.754 326.474 230.711 326.634 230.624C326.725 230.578 326.798 230.492 326.853 230.364C326.907 230.237 326.935 229.977 326.935 229.585V223.918C326.935 223.202 326.916 222.763 326.88 222.599C326.848 222.435 326.796 222.323 326.723 222.264C326.654 222.204 326.561 222.175 326.442 222.175C326.347 222.175 326.192 222.211 325.978 222.284L325.882 222.045L327.755 221.279H328.069ZM336.778 230.098C336.136 230.594 335.732 230.882 335.568 230.959C335.322 231.073 335.06 231.13 334.782 231.13C334.349 231.13 333.992 230.982 333.709 230.686C333.431 230.389 333.292 230 333.292 229.517C333.292 229.211 333.36 228.947 333.497 228.724C333.684 228.414 334.007 228.122 334.468 227.849C334.933 227.575 335.703 227.243 336.778 226.851V226.604C336.778 225.98 336.678 225.552 336.478 225.319C336.282 225.087 335.994 224.971 335.616 224.971C335.329 224.971 335.101 225.048 334.933 225.203C334.759 225.358 334.673 225.536 334.673 225.736L334.687 226.133C334.687 226.342 334.632 226.504 334.522 226.618C334.418 226.732 334.279 226.789 334.105 226.789C333.937 226.789 333.798 226.73 333.688 226.611C333.584 226.493 333.531 226.331 333.531 226.126C333.531 225.734 333.732 225.374 334.133 225.046C334.534 224.718 335.097 224.554 335.821 224.554C336.377 224.554 336.833 224.647 337.188 224.834C337.457 224.975 337.656 225.196 337.783 225.497C337.865 225.693 337.906 226.094 337.906 226.7V228.826C337.906 229.423 337.918 229.79 337.94 229.927C337.963 230.059 338 230.148 338.05 230.193C338.104 230.239 338.166 230.262 338.234 230.262C338.307 230.262 338.371 230.246 338.426 230.214C338.521 230.155 338.706 229.988 338.979 229.715V230.098C338.469 230.781 337.981 231.123 337.517 231.123C337.293 231.123 337.116 231.046 336.983 230.891C336.851 230.736 336.783 230.471 336.778 230.098ZM336.778 229.653V227.268C336.09 227.541 335.646 227.735 335.445 227.849C335.085 228.049 334.828 228.259 334.673 228.478C334.518 228.696 334.44 228.936 334.44 229.195C334.44 229.523 334.538 229.797 334.734 230.016C334.93 230.23 335.156 230.337 335.411 230.337C335.757 230.337 336.213 230.109 336.778 229.653ZM337.455 221.498L335.438 223.856H335.206L335.924 221.498H337.455ZM339 225.36L340.928 224.581H341.188V226.044C341.511 225.493 341.835 225.107 342.158 224.889C342.486 224.665 342.83 224.554 343.19 224.554C343.819 224.554 344.343 224.8 344.763 225.292C345.278 225.894 345.535 226.677 345.535 227.644C345.535 228.724 345.225 229.617 344.605 230.323C344.095 230.902 343.452 231.191 342.678 231.191C342.34 231.191 342.049 231.144 341.803 231.048C341.62 230.979 341.415 230.843 341.188 230.638V232.545C341.188 232.973 341.213 233.244 341.263 233.358C341.317 233.477 341.409 233.57 341.536 233.639C341.668 233.707 341.905 233.741 342.247 233.741V233.994H338.966V233.741H339.137C339.387 233.746 339.602 233.698 339.779 233.598C339.866 233.548 339.932 233.465 339.978 233.352C340.028 233.242 340.053 232.96 340.053 232.504V226.584C340.053 226.178 340.035 225.921 339.998 225.812C339.962 225.702 339.902 225.62 339.82 225.565C339.743 225.511 339.636 225.483 339.499 225.483C339.39 225.483 339.251 225.515 339.082 225.579L339 225.36ZM341.188 226.447V228.785C341.188 229.291 341.208 229.624 341.249 229.783C341.313 230.048 341.468 230.28 341.714 230.48C341.965 230.681 342.279 230.781 342.657 230.781C343.113 230.781 343.482 230.604 343.765 230.248C344.134 229.783 344.318 229.129 344.318 228.286C344.318 227.329 344.109 226.593 343.689 226.078C343.398 225.723 343.051 225.545 342.65 225.545C342.432 225.545 342.215 225.6 342.001 225.709C341.837 225.791 341.566 226.037 341.188 226.447Z" fill="black"/>
<path d="M210.025 141.437L210.251 141.484L209.458 144H202.28V143.747H202.629C203.021 143.747 203.301 143.619 203.47 143.364C203.565 143.218 203.613 142.881 203.613 142.353V136.371C203.613 135.792 203.549 135.43 203.422 135.284C203.244 135.084 202.98 134.983 202.629 134.983H202.28V134.73H206.478V134.983C205.985 134.979 205.639 135.024 205.438 135.12C205.243 135.216 205.108 135.337 205.035 135.482C204.962 135.628 204.926 135.977 204.926 136.528V142.353C204.926 142.731 204.962 142.991 205.035 143.132C205.09 143.228 205.174 143.298 205.288 143.344C205.402 143.389 205.757 143.412 206.354 143.412H207.031C207.742 143.412 208.241 143.36 208.528 143.255C208.815 143.15 209.077 142.965 209.314 142.701C209.551 142.432 209.788 142.011 210.025 141.437ZM216.485 137.738V141.532C216.485 142.257 216.501 142.701 216.533 142.865C216.57 143.025 216.624 143.136 216.697 143.2C216.775 143.264 216.864 143.296 216.964 143.296C217.105 143.296 217.265 143.257 217.442 143.18L217.538 143.419L215.665 144.191H215.357V142.865C214.82 143.449 214.41 143.815 214.127 143.966C213.844 144.116 213.546 144.191 213.231 144.191C212.881 144.191 212.575 144.091 212.315 143.891C212.06 143.686 211.882 143.424 211.782 143.104C211.682 142.785 211.632 142.334 211.632 141.751V138.955C211.632 138.659 211.6 138.454 211.536 138.34C211.472 138.226 211.377 138.139 211.249 138.08C211.126 138.016 210.9 137.987 210.572 137.991V137.738H212.767V141.929C212.767 142.512 212.867 142.895 213.067 143.077C213.272 143.259 213.519 143.351 213.806 143.351C214.002 143.351 214.223 143.289 214.469 143.166C214.719 143.043 215.016 142.808 215.357 142.462V138.914C215.357 138.559 215.291 138.319 215.159 138.196C215.032 138.069 214.763 138 214.353 137.991V137.738H216.485ZM213.683 144.82C213.897 144.82 214.077 144.893 214.223 145.039C214.368 145.189 214.441 145.369 214.441 145.579C214.441 145.789 214.366 145.966 214.216 146.112C214.07 146.263 213.892 146.338 213.683 146.338C213.473 146.338 213.293 146.263 213.143 146.112C212.997 145.966 212.924 145.789 212.924 145.579C212.924 145.365 212.997 145.185 213.143 145.039C213.293 144.893 213.473 144.82 213.683 144.82ZM223.314 141.621C223.146 142.446 222.815 143.082 222.323 143.528C221.831 143.97 221.286 144.191 220.689 144.191C219.979 144.191 219.359 143.893 218.83 143.296C218.301 142.699 218.037 141.892 218.037 140.876C218.037 139.892 218.329 139.092 218.912 138.477C219.5 137.861 220.204 137.554 221.024 137.554C221.64 137.554 222.146 137.718 222.542 138.046C222.938 138.369 223.137 138.707 223.137 139.058C223.137 139.231 223.08 139.372 222.966 139.481C222.856 139.586 222.701 139.639 222.501 139.639C222.232 139.639 222.029 139.552 221.893 139.379C221.815 139.283 221.763 139.101 221.735 138.832C221.713 138.563 221.621 138.358 221.462 138.217C221.302 138.08 221.081 138.012 220.799 138.012C220.343 138.012 219.976 138.18 219.698 138.518C219.329 138.964 219.145 139.554 219.145 140.288C219.145 141.035 219.327 141.696 219.691 142.271C220.061 142.84 220.557 143.125 221.182 143.125C221.628 143.125 222.029 142.972 222.385 142.667C222.635 142.457 222.879 142.077 223.116 141.525L223.314 141.621ZM229.535 135.681V137.738H230.998V138.217H229.535V142.277C229.535 142.683 229.592 142.956 229.706 143.098C229.825 143.239 229.975 143.31 230.157 143.31C230.308 143.31 230.453 143.264 230.595 143.173C230.736 143.077 230.845 142.938 230.923 142.756H231.189C231.03 143.202 230.804 143.54 230.513 143.768C230.221 143.991 229.92 144.103 229.61 144.103C229.401 144.103 229.196 144.046 228.995 143.932C228.795 143.813 228.646 143.647 228.551 143.433C228.455 143.214 228.407 142.879 228.407 142.428V138.217H227.416V137.991C227.667 137.891 227.922 137.722 228.182 137.485C228.446 137.244 228.681 136.959 228.886 136.631C228.991 136.458 229.136 136.141 229.323 135.681H229.535ZM233.445 137.554V138.962C233.969 138.023 234.507 137.554 235.059 137.554C235.309 137.554 235.517 137.631 235.681 137.786C235.845 137.937 235.927 138.112 235.927 138.312C235.927 138.49 235.868 138.641 235.749 138.764C235.631 138.887 235.489 138.948 235.325 138.948C235.166 138.948 234.986 138.871 234.785 138.716C234.589 138.556 234.443 138.477 234.348 138.477C234.266 138.477 234.177 138.522 234.081 138.613C233.876 138.8 233.664 139.108 233.445 139.536V142.537C233.445 142.883 233.489 143.146 233.575 143.323C233.634 143.446 233.739 143.549 233.89 143.631C234.04 143.713 234.257 143.754 234.539 143.754V144H231.333V143.754C231.652 143.754 231.889 143.704 232.044 143.604C232.158 143.531 232.238 143.414 232.283 143.255C232.306 143.177 232.317 142.956 232.317 142.592V140.165C232.317 139.436 232.301 139.003 232.27 138.866C232.242 138.725 232.188 138.622 232.105 138.559C232.028 138.495 231.93 138.463 231.812 138.463C231.67 138.463 231.511 138.497 231.333 138.565L231.265 138.319L233.158 137.554H233.445ZM239.823 143.098C239.181 143.594 238.777 143.882 238.613 143.959C238.367 144.073 238.105 144.13 237.827 144.13C237.394 144.13 237.036 143.982 236.754 143.686C236.476 143.389 236.337 143 236.337 142.517C236.337 142.211 236.405 141.947 236.542 141.724C236.729 141.414 237.052 141.122 237.513 140.849C237.978 140.575 238.748 140.243 239.823 139.851V139.604C239.823 138.98 239.723 138.552 239.522 138.319C239.326 138.087 239.039 137.971 238.661 137.971C238.374 137.971 238.146 138.048 237.978 138.203C237.804 138.358 237.718 138.536 237.718 138.736L237.731 139.133C237.731 139.342 237.677 139.504 237.567 139.618C237.463 139.732 237.324 139.789 237.15 139.789C236.982 139.789 236.843 139.73 236.733 139.611C236.629 139.493 236.576 139.331 236.576 139.126C236.576 138.734 236.777 138.374 237.178 138.046C237.579 137.718 238.142 137.554 238.866 137.554C239.422 137.554 239.878 137.647 240.233 137.834C240.502 137.975 240.701 138.196 240.828 138.497C240.91 138.693 240.951 139.094 240.951 139.7V141.826C240.951 142.423 240.963 142.79 240.985 142.927C241.008 143.059 241.045 143.148 241.095 143.193C241.149 143.239 241.211 143.262 241.279 143.262C241.352 143.262 241.416 143.246 241.471 143.214C241.566 143.155 241.751 142.988 242.024 142.715V143.098C241.514 143.781 241.026 144.123 240.562 144.123C240.338 144.123 240.16 144.046 240.028 143.891C239.896 143.736 239.828 143.471 239.823 143.098ZM239.823 142.653V140.268C239.135 140.541 238.691 140.735 238.49 140.849C238.13 141.049 237.873 141.259 237.718 141.478C237.563 141.696 237.485 141.936 237.485 142.195C237.485 142.523 237.583 142.797 237.779 143.016C237.975 143.23 238.201 143.337 238.456 143.337C238.802 143.337 239.258 143.109 239.823 142.653ZM238.34 134.532H239.598L240.896 136.795H240.685L238.818 135.339L237.253 136.795H237.048L238.34 134.532ZM237.349 131.524H238.873L239.598 133.808H239.358L237.349 131.524ZM244.321 138.88C245.055 137.996 245.755 137.554 246.42 137.554C246.762 137.554 247.056 137.64 247.302 137.813C247.548 137.982 247.744 138.262 247.89 138.654C247.99 138.928 248.04 139.347 248.04 139.912V142.585C248.04 142.981 248.072 143.25 248.136 143.392C248.186 143.506 248.266 143.594 248.375 143.658C248.489 143.722 248.696 143.754 248.997 143.754V144H245.9V143.754H246.03C246.322 143.754 246.525 143.711 246.639 143.624C246.757 143.533 246.839 143.401 246.885 143.228C246.903 143.159 246.912 142.945 246.912 142.585V140.021C246.912 139.452 246.837 139.039 246.687 138.784C246.541 138.524 246.292 138.395 245.941 138.395C245.399 138.395 244.859 138.691 244.321 139.283V142.585C244.321 143.009 244.346 143.271 244.396 143.371C244.46 143.503 244.547 143.601 244.656 143.665C244.77 143.724 244.998 143.754 245.34 143.754V144H242.243V143.754H242.38C242.699 143.754 242.913 143.674 243.022 143.515C243.136 143.351 243.193 143.041 243.193 142.585V140.261C243.193 139.509 243.175 139.051 243.139 138.887C243.107 138.723 243.054 138.611 242.981 138.552C242.913 138.493 242.82 138.463 242.701 138.463C242.574 138.463 242.421 138.497 242.243 138.565L242.141 138.319L244.027 137.554H244.321V138.88Z" fill="black"/>
<path d="M45 139.5H56" stroke="#F3B841" stroke-width="2"/>
<path d="M261 139.5H272" stroke="#F3B841" stroke-width="2"/>
<path d="M89 53H64C59.5817 53 56 56.5817 56 61V218.5C56 222.918 59.5817 226.5 64 226.5H89" stroke="#F3B841" stroke-width="2"/>
<path d="M305 53H280C275.582 53 272 56.5817 272 61V218.5C272 222.918 275.582 226.5 280 226.5H305" stroke="#F3B841" stroke-width="2"/>
<path d="M57 89H89" stroke="#F3B841" stroke-width="2"/>
<path d="M273 89H305" stroke="#F3B841" stroke-width="2"/>
<path d="M57 125H89" stroke="#F3B841" stroke-width="2"/>
<path d="M273 125H305" stroke="#F3B841" stroke-width="2"/>
<path d="M57 157H89" stroke="#F3B841" stroke-width="2"/>
<path d="M273 157H305" stroke="#F3B841" stroke-width="2"/>
<path d="M57 192H89" stroke="#F3B841" stroke-width="2"/>
<path d="M273 192H305" stroke="#F3B841" stroke-width="2"/>
<rect x="194" y="128" width="66" height="23" rx="5" stroke="#7E7A6F" stroke-width="2"/>
<path d="M167.5 30V249.5" stroke="#E85E58" stroke-width="2"/>
<path d="M177.5 139.5H168" stroke="#E85E58" stroke-width="2"/>
<path d="M106.419 3.51855V6.72461H106.166C106.084 6.10938 105.936 5.61947 105.722 5.25488C105.512 4.8903 105.211 4.60091 104.819 4.38672C104.427 4.17253 104.022 4.06543 103.603 4.06543C103.129 4.06543 102.737 4.21126 102.427 4.50293C102.117 4.79004 101.962 5.11816 101.962 5.4873C101.962 5.76986 102.06 6.02734 102.256 6.25977C102.538 6.60156 103.211 7.05729 104.272 7.62695C105.138 8.0918 105.729 8.44954 106.043 8.7002C106.362 8.94629 106.606 9.23796 106.774 9.5752C106.948 9.91243 107.034 10.2656 107.034 10.6348C107.034 11.3366 106.761 11.9427 106.214 12.4531C105.672 12.959 104.972 13.2119 104.115 13.2119C103.846 13.2119 103.593 13.1914 103.356 13.1504C103.215 13.1276 102.921 13.0456 102.475 12.9043C102.033 12.7585 101.752 12.6855 101.634 12.6855C101.52 12.6855 101.429 12.7197 101.36 12.7881C101.297 12.8564 101.249 12.9977 101.217 13.2119H100.964V10.0332H101.217C101.335 10.6986 101.495 11.1976 101.695 11.5303C101.896 11.8584 102.201 12.1318 102.611 12.3506C103.026 12.5693 103.479 12.6787 103.972 12.6787C104.541 12.6787 104.99 12.5283 105.318 12.2275C105.651 11.9268 105.817 11.5713 105.817 11.1611C105.817 10.9333 105.754 10.7031 105.626 10.4707C105.503 10.2383 105.309 10.0218 105.045 9.82129C104.867 9.68457 104.382 9.39518 103.589 8.95312C102.796 8.50651 102.231 8.15104 101.894 7.88672C101.561 7.6224 101.308 7.33073 101.135 7.01172C100.962 6.69271 100.875 6.3418 100.875 5.95898C100.875 5.29362 101.13 4.72168 101.641 4.24316C102.151 3.76009 102.8 3.51855 103.589 3.51855C104.081 3.51855 104.603 3.63932 105.154 3.88086C105.41 3.99479 105.59 4.05176 105.694 4.05176C105.813 4.05176 105.909 4.01758 105.981 3.94922C106.059 3.8763 106.12 3.73275 106.166 3.51855H106.419ZM109.823 3.2793C110.015 3.2793 110.176 3.34766 110.309 3.48438C110.445 3.61654 110.514 3.77832 110.514 3.96973C110.514 4.16113 110.445 4.3252 110.309 4.46191C110.176 4.59863 110.015 4.66699 109.823 4.66699C109.632 4.66699 109.468 4.59863 109.331 4.46191C109.194 4.3252 109.126 4.16113 109.126 3.96973C109.126 3.77832 109.192 3.61654 109.324 3.48438C109.461 3.34766 109.627 3.2793 109.823 3.2793ZM110.391 6.55371V11.585C110.391 11.9769 110.418 12.2389 110.473 12.3711C110.532 12.4987 110.616 12.5944 110.726 12.6582C110.84 12.722 111.045 12.7539 111.341 12.7539V13H108.299V12.7539C108.604 12.7539 108.809 12.7243 108.914 12.665C109.019 12.6058 109.101 12.5078 109.16 12.3711C109.224 12.2344 109.256 11.9723 109.256 11.585V9.17188C109.256 8.49284 109.235 8.05306 109.194 7.85254C109.162 7.70671 109.112 7.60645 109.044 7.55176C108.976 7.49251 108.882 7.46289 108.764 7.46289C108.636 7.46289 108.481 7.49707 108.299 7.56543L108.203 7.31934L110.09 6.55371H110.391ZM113.952 7.87988C114.686 6.99577 115.385 6.55371 116.051 6.55371C116.393 6.55371 116.687 6.6403 116.933 6.81348C117.179 6.9821 117.375 7.26237 117.521 7.6543C117.621 7.92773 117.671 8.34701 117.671 8.91211V11.585C117.671 11.9814 117.703 12.2503 117.767 12.3916C117.817 12.5055 117.896 12.5944 118.006 12.6582C118.12 12.722 118.327 12.7539 118.628 12.7539V13H115.531V12.7539H115.661C115.953 12.7539 116.156 12.7106 116.27 12.624C116.388 12.5329 116.47 12.4007 116.516 12.2275C116.534 12.1592 116.543 11.945 116.543 11.585V9.02148C116.543 8.45182 116.468 8.03939 116.317 7.78418C116.172 7.52441 115.923 7.39453 115.572 7.39453C115.03 7.39453 114.49 7.69076 113.952 8.2832V11.585C113.952 12.0088 113.977 12.2708 114.027 12.3711C114.091 12.5033 114.178 12.6012 114.287 12.665C114.401 12.7243 114.629 12.7539 114.971 12.7539V13H111.874V12.7539H112.011C112.33 12.7539 112.544 12.6742 112.653 12.5146C112.767 12.3506 112.824 12.0407 112.824 11.585V9.26074C112.824 8.50879 112.806 8.05078 112.77 7.88672C112.738 7.72266 112.685 7.611 112.612 7.55176C112.544 7.49251 112.451 7.46289 112.332 7.46289C112.204 7.46289 112.052 7.49707 111.874 7.56543L111.771 7.31934L113.658 6.55371H113.952V7.87988ZM120.966 3.2793V7.85938C121.472 7.30339 121.873 6.94792 122.169 6.79297C122.465 6.63346 122.761 6.55371 123.058 6.55371C123.413 6.55371 123.718 6.65169 123.974 6.84766C124.229 7.04362 124.418 7.35124 124.541 7.77051C124.628 8.06217 124.671 8.59538 124.671 9.37012V11.585C124.671 11.9814 124.703 12.2526 124.767 12.3984C124.812 12.5078 124.89 12.5944 124.999 12.6582C125.108 12.722 125.309 12.7539 125.601 12.7539V13H122.524V12.7539H122.668C122.96 12.7539 123.162 12.7106 123.276 12.624C123.39 12.5329 123.47 12.4007 123.516 12.2275C123.529 12.1546 123.536 11.9404 123.536 11.585V9.37012C123.536 8.68652 123.5 8.23763 123.427 8.02344C123.358 7.80924 123.247 7.64974 123.092 7.54492C122.937 7.43555 122.75 7.38086 122.531 7.38086C122.308 7.38086 122.076 7.4401 121.834 7.55859C121.592 7.67708 121.303 7.91634 120.966 8.27637V11.585C120.966 12.0133 120.989 12.2799 121.034 12.3848C121.084 12.4896 121.173 12.5785 121.301 12.6514C121.433 12.7197 121.659 12.7539 121.978 12.7539V13H118.874V12.7539C119.152 12.7539 119.371 12.7106 119.53 12.624C119.621 12.5785 119.694 12.4919 119.749 12.3643C119.804 12.2367 119.831 11.9769 119.831 11.585V5.91797C119.831 5.20247 119.813 4.7627 119.776 4.59863C119.744 4.43457 119.692 4.32292 119.619 4.26367C119.551 4.20443 119.457 4.1748 119.339 4.1748C119.243 4.1748 119.088 4.21126 118.874 4.28418L118.778 4.04492L120.651 3.2793H120.966ZM131.459 6.55371V7.96191C131.983 7.02311 132.521 6.55371 133.072 6.55371C133.323 6.55371 133.53 6.63118 133.694 6.78613C133.858 6.93652 133.94 7.11198 133.94 7.3125C133.94 7.49023 133.881 7.64062 133.763 7.76367C133.644 7.88672 133.503 7.94824 133.339 7.94824C133.179 7.94824 132.999 7.87077 132.799 7.71582C132.603 7.55632 132.457 7.47656 132.361 7.47656C132.279 7.47656 132.19 7.52214 132.095 7.61328C131.89 7.80013 131.678 8.10775 131.459 8.53613V11.5371C131.459 11.8835 131.502 12.1455 131.589 12.3232C131.648 12.4463 131.753 12.5488 131.903 12.6309C132.054 12.7129 132.27 12.7539 132.553 12.7539V13H129.347V12.7539C129.666 12.7539 129.903 12.7038 130.058 12.6035C130.172 12.5306 130.251 12.4144 130.297 12.2549C130.32 12.1774 130.331 11.9564 130.331 11.5918V9.16504C130.331 8.43587 130.315 8.00293 130.283 7.86621C130.256 7.72493 130.201 7.6224 130.119 7.55859C130.042 7.49479 129.944 7.46289 129.825 7.46289C129.684 7.46289 129.524 7.49707 129.347 7.56543L129.278 7.31934L131.172 6.55371H131.459ZM137.837 12.0977C137.194 12.5944 136.791 12.8815 136.627 12.959C136.381 13.0729 136.119 13.1299 135.841 13.1299C135.408 13.1299 135.05 12.9818 134.768 12.6855C134.49 12.3893 134.351 11.9997 134.351 11.5166C134.351 11.2113 134.419 10.9469 134.556 10.7236C134.743 10.4137 135.066 10.1221 135.526 9.84863C135.991 9.5752 136.761 9.24251 137.837 8.85059V8.60449C137.837 7.98014 137.737 7.55176 137.536 7.31934C137.34 7.08691 137.053 6.9707 136.675 6.9707C136.388 6.9707 136.16 7.04818 135.991 7.20312C135.818 7.35807 135.731 7.53581 135.731 7.73633L135.745 8.13281C135.745 8.34245 135.69 8.50423 135.581 8.61816C135.476 8.7321 135.337 8.78906 135.164 8.78906C134.995 8.78906 134.856 8.72982 134.747 8.61133C134.642 8.49284 134.59 8.33105 134.59 8.12598C134.59 7.73405 134.79 7.37402 135.191 7.0459C135.592 6.71777 136.155 6.55371 136.88 6.55371C137.436 6.55371 137.892 6.64714 138.247 6.83398C138.516 6.97526 138.714 7.19629 138.842 7.49707C138.924 7.69303 138.965 8.09408 138.965 8.7002V10.8262C138.965 11.4232 138.976 11.79 138.999 11.9268C139.022 12.0589 139.058 12.1478 139.108 12.1934C139.163 12.2389 139.225 12.2617 139.293 12.2617C139.366 12.2617 139.43 12.2458 139.484 12.2139C139.58 12.1546 139.765 11.9883 140.038 11.7148V12.0977C139.528 12.7812 139.04 13.123 138.575 13.123C138.352 13.123 138.174 13.0456 138.042 12.8906C137.91 12.7357 137.841 12.4714 137.837 12.0977ZM137.837 11.6533V9.26758C137.149 9.54102 136.704 9.7347 136.504 9.84863C136.144 10.0492 135.886 10.2588 135.731 10.4775C135.576 10.6963 135.499 10.9355 135.499 11.1953C135.499 11.5234 135.597 11.7969 135.793 12.0156C135.989 12.2298 136.215 12.3369 136.47 12.3369C136.816 12.3369 137.272 12.109 137.837 11.6533Z" fill="black"/>
<path d="M12.1667 118C12.1667 120.946 14.5545 123.333 17.5 123.333C20.4455 123.333 22.8333 120.946 22.8333 118C22.8333 115.054 20.4455 112.667 17.5 112.667C14.5545 112.667 12.1667 115.054 12.1667 118ZM18.5 118V114.412H16.5V118H18.5ZM18.5 112.361V105.184H16.5V112.361H18.5ZM18.5 103.134V95.9571H16.5V103.134H18.5ZM18.5 93.9066V86.7298H16.5V93.9066H18.5ZM18.5 84.6793V77.5025H16.5V84.6793H18.5ZM18.5 75.452V68.2753H16.5V75.452H18.5ZM18.5 66.2247V59.048H16.5V66.2247H18.5ZM18.5 56.9975V49.8207H16.5V56.9975H18.5ZM18.5 47.7702V40.5934H16.5V47.7702H18.5ZM18.5 38.5429V31.3662H16.5V38.5429H18.5ZM18.5 29.3157V22.1389H16.5V29.3157H18.5ZM18.5 20.0884V16.5H16.5V20.0884H18.5ZM18.5 16.5C18.5 15.0047 18.9677 13.6217 19.7648 12.4853L18.1275 11.3368C17.102 12.7987 16.5 14.5805 16.5 16.5H18.5ZM21.4853 10.7648C22.6217 9.9677 24.0047 9.5 25.5 9.5V7.5C23.5805 7.5 21.7987 8.10203 20.3368 9.12752L21.4853 10.7648ZM25.5 9.5H29V7.5H25.5V9.5ZM31 9.5H38V7.5H31V9.5ZM40 9.5H47V7.5H40V9.5ZM49 9.5H56V7.5H49V9.5ZM58 9.5H65V7.5H58V9.5ZM67 9.5H74V7.5H67V9.5ZM76 9.5H83V7.5H76V9.5ZM85 9.5H92V7.5H85V9.5ZM94 9.5H97.5V7.5H94V9.5Z" fill="#E85E58"/>
<path d="M226 123L220.226 113H231.774L226 123ZM225 117.576V110.674H227V117.576H225ZM225 108.701V101.799H227V108.701H225ZM225 99.8264V92.9236H227V99.8264H225ZM225 90.9514V84.0486H227V90.9514H225ZM225 82.0764V75.1736H227V82.0764H225ZM225 73.2014V66.2986H227V73.2014H225ZM225 64.3264V57.4236H227V64.3264H225ZM225 55.4514V48.5486H227V55.4514H225ZM225 46.5764V39.6736H227V46.5764H225ZM225 37.7014V30.7986H227V37.7014H225ZM225 28.8264V21.9236H227V28.8264H225ZM225 19.9514V16.5H227V19.9514H225ZM225 16.5C225 15.0047 224.532 13.6217 223.735 12.4853L225.372 11.3368C226.398 12.7987 227 14.5805 227 16.5H225ZM222.015 10.7648C220.878 9.9677 219.495 9.5 218 9.5V7.5C219.919 7.5 221.701 8.10203 223.163 9.12752L222.015 10.7648ZM218 9.5H214.5V7.5H218V9.5ZM212.5 9.5H205.5V7.5H212.5V9.5ZM203.5 9.5H196.5V7.5H203.5V9.5ZM194.5 9.5H187.5V7.5H194.5V9.5ZM185.5 9.5H178.5V7.5H185.5V9.5ZM176.5 9.5H169.5V7.5H176.5V9.5ZM167.5 9.5H160.5V7.5H167.5V9.5ZM158.5 9.5H151.5V7.5H158.5V9.5ZM149.5 9.5H146V7.5H149.5V9.5Z" fill="#E85E58"/>
</svg>
