<?xml version="1.0" encoding="utf-8"?><!-- Uploaded to: SVG Repo, www.svgrepo.com, Generator: SVG Repo Mixer Tools -->
<svg width="800px" height="800px" viewBox="0 0 1024 1024" class="icon" xmlns="http://www.w3.org/2000/svg"><path fill="#000000" d="M795.904 750.72l124.992 124.928a32 32 0 01-45.248 45.248L750.656 795.904a416 416 0 1145.248-45.248zM480 832a352 352 0 100-704 352 352 0 000 704zm-32-384v-96a32 32 0 0164 0v96h96a32 32 0 010 64h-96v96a32 32 0 01-64 0v-96h-96a32 32 0 010-64h96z"/></svg>