<svg width="800" height="800" viewBox="0 0 800 800" fill="none" xmlns="http://www.w3.org/2000/svg">
<path d="M621.8 586.5L719.45 684.1C724.004 688.815 726.524 695.13 726.467 701.685C726.41 708.24 723.781 714.51 719.146 719.145C714.51 723.781 708.24 726.41 701.685 726.467C695.13 726.524 688.815 724.004 684.1 719.45L586.45 621.8C522.638 676.472 440.131 704.304 356.241 699.454C272.351 694.605 193.6 657.452 136.513 595.791C79.4253 534.131 48.4391 452.755 50.0564 368.741C51.6736 284.727 85.7684 204.604 145.186 145.186C204.605 85.7683 284.727 51.6734 368.741 50.0562C452.756 48.439 534.131 79.4251 595.792 136.513C657.452 193.6 694.605 272.351 699.455 356.241C704.304 440.131 676.472 522.638 621.8 586.45V586.5ZM375 650C447.935 650 517.882 621.027 569.455 569.454C621.027 517.882 650 447.935 650 375C650 302.065 621.027 232.118 569.455 180.546C517.882 128.973 447.935 100 375 100C302.066 100 232.118 128.973 180.546 180.546C128.973 232.118 100 302.065 100 375C100 447.935 128.973 517.882 180.546 569.454C232.118 621.027 302.066 650 375 650ZM350 350V275C350 268.37 352.634 262.011 357.322 257.322C362.011 252.634 368.37 250 375 250C381.631 250 387.989 252.634 392.678 257.322C397.366 262.011 400 268.37 400 275V350H475C481.631 350 487.989 352.634 492.678 357.322C497.366 362.011 500 368.37 500 375C500 381.63 497.366 387.989 492.678 392.678C487.989 397.366 481.631 400 475 400H400V475C400 481.63 397.366 487.989 392.678 492.678C387.989 497.366 381.631 500 375 500C368.37 500 362.011 497.366 357.322 492.678C352.634 487.989 350 481.63 350 475V400H275C268.37 400 262.011 397.366 257.322 392.678C252.634 387.989 250 381.63 250 375C250 368.37 252.634 362.011 257.322 357.322C262.011 352.634 268.37 350 275 350H350Z" fill="black"/>
</svg>
